# xmcd CD database file
#
# Track frame offsets:
#	150
#	10649
#	26825
#	41260
#	55333
#	68431
#	80430
#	89762
#	109088
#	124705
#	140883
#	155178
#	169641
#	183436
#	199483
#
# Disc length: 2938 seconds
#
# Revision: 2
# Processed by: cddbd v1.4b41PL1 Copyright (c) Steve Scherf et al.
# Submitted via: Feurio! 1.50.2ß - http://www.feurio.com
#
DISCID=cf0b780f
DTITLE=Jives Alive - The Best Of Swing
DYEAR=1900
DGENRE=
TTITLE0=Brian Setzer Orchesltra - This Cats On A Hot Tin Roof
TTITLE1=Royal Crown Revue - Hey Pachuco
TTITLE2=Big Bad Vodoo Daddy - go Daddy-O
TTITLE3=Johnny Favorite Swing Orchestra - Holiday Romance
TTITLE4=Big Rude Jake - Queer For Cat
TTITLE5=The Flying Neutrinos - Mr. Zoot Suit
TTITLE6=Big Time Operator - It Don't Mean A Thing
TTITLE7=Diana KrallDIANA KRALL - Hit That Jive 
TTITLE8=Red and The Red Hots - The Boogie Man
TTITLE9=Cherry Poppin' Daddy's - Dr.Bones
TTITLE10=Indigo Swing - Swing Lover
TTITLE11=Lavay Smith and Her Red Hot Skillet Lickers - Oo Poppa Do
TTITLE12=The Bill Elliott Swing Orchestra - Dill's Bounce
TTITLE13=Blues JumpersBLUES JUMPERS - Good Morning Judge
TTITLE14=Steve Lucky and The Rumba Bums - Jumptown
EXTD=
EXTT0=
EXTT1=
EXTT2=
EXTT3=
EXTT4=
EXTT5=
EXTT6=
EXTT7=
EXTT8=
EXTT9=
EXTT10=
EXTT11=
EXTT12=
EXTT13=
EXTT14=
PLAYORDER=
